<svg height="64" preserveAspectRatio="none" viewBox="0 0 64 64" width="64" xmlns="http://www.w3.org/2000/svg" xmlns:xlink="http://www.w3.org/1999/xlink"><linearGradient id="a"><stop offset="0" stop-color="#595757"/><stop offset=".3" stop-color="#9c9c9d"/><stop offset=".7" stop-color="#595757"/><stop offset="1" stop-color="#3e3a39"/></linearGradient><linearGradient id="b" gradientUnits="userSpaceOnUse" x1="46.881901" x2="46.881901" xlink:href="#a" y1="22.3288" y2="23.921499"/><linearGradient id="c" gradientUnits="userSpaceOnUse" x1="17.11812" x2="17.11812" xlink:href="#a" y1="22.3288" y2="23.921499"/><linearGradient id="d"><stop offset="0" stop-color="#fff"/><stop offset="1"/></linearGradient><radialGradient id="e" cx="31.902041" cy="34.041885" gradientTransform="matrix(.8432 0 0 .8588 5.1002 2.0244)" gradientUnits="userSpaceOnUse" r="29.71695" xlink:href="#d"/><radialGradient id="f" cx="31.902052" cy="31.346554" gradientTransform="matrix(.8432 0 0 .8588 5.1002 2.0244)" gradientUnits="userSpaceOnUse" r="22.596756" xlink:href="#d"/><radialGradient id="g" cx="31.902058" cy="28.651222" gradientTransform="matrix(.8432 0 0 .8588 5.1002 2.0244)" gradientUnits="userSpaceOnUse" r="15.476649" xlink:href="#d"/><radialGradient id="h" cx="31.902041" cy="25.955833" gradientTransform="matrix(.8432 0 0 .8588 5.1002 2.0244)" gradientUnits="userSpaceOnUse" r="8.356836" xlink:href="#d"/><linearGradient id="i"><stop offset="0" stop-color="#f8eb00"/><stop offset=".0739941" stop-color="#f7e701"/><stop offset=".1550684" stop-color="#f6d902"/><stop offset=".2395231" stop-color="#f4c305"/><stop offset=".32629" stop-color="#f0a509"/><stop offset=".4139434" stop-color="#ec7e0e"/><stop offset=".491071" stop-color="#e75513"/><stop offset=".8" stop-color="#e75513" stop-opacity=".9"/><stop offset="1" stop-color="#e75513" stop-opacity=".6"/></linearGradient><radialGradient id="j" cx="31.902041" cy="3.7104" fy="4.691227" gradientTransform="matrix(.8432 0 0 1.9579464 5.1002 -.936349)" gradientUnits="userSpaceOnUse" r="2.480669" xlink:href="#i"/><radialGradient id="k" cx="39.089184" cy="13.370872" fy="14.351698" gradientTransform="matrix(.8432 0 0 1.9579464 5.1002 -13.213325)" gradientUnits="userSpaceOnUse" r="2.480669" xlink:href="#i"/><radialGradient id="l" cx="46.276386" cy="13.370872" fy="14.351694" gradientTransform="matrix(.8432 0 0 1.9579464 5.1002 -13.213325)" gradientUnits="userSpaceOnUse" r="2.480657" xlink:href="#i"/><radialGradient id="m" cx="53.463532" cy="13.370872" fy="14.351694" gradientTransform="matrix(.8432 0 0 1.9579464 5.1002 -13.213325)" gradientUnits="userSpaceOnUse" r="2.480657" xlink:href="#i"/><radialGradient id="n" cx="60.650677" cy="13.370872" fy="14.351694" gradientTransform="matrix(.8432 0 0 1.9579464 5.1002 -13.213325)" gradientUnits="userSpaceOnUse" r="2.480657" xlink:href="#i"/><radialGradient id="o" cx="10.340555" cy="13.370872" fy="14.351696" gradientTransform="matrix(.8432 0 0 1.9579464 5.1002 -13.213325)" gradientUnits="userSpaceOnUse" r="2.480663" xlink:href="#i"/><radialGradient id="p" cx="17.527716" cy="13.370872" fy="14.351696" gradientTransform="matrix(.8432 0 0 1.9579464 5.1002 -13.213325)" gradientUnits="userSpaceOnUse" r="2.480662" xlink:href="#i"/><radialGradient id="q" cx="24.714895" cy="13.370872" fy="14.351698" gradientTransform="matrix(.8432 0 0 1.9579464 5.1002 -13.213325)" gradientUnits="userSpaceOnUse" r="2.480669" xlink:href="#i"/><linearGradient id="r"><stop offset="0" stop-color="#595757"/><stop offset=".3" stop-color="#9c9c9d"/><stop offset=".5" stop-color="#f5f5f5"/><stop offset=".7" stop-color="#9c9c9d"/><stop offset="1" stop-color="#595757"/></linearGradient><linearGradient id="s" gradientUnits="userSpaceOnUse" x1="29.9799" x2="34.0201" xlink:href="#r" y1="11.993565" y2="11.993565"/><linearGradient id="t"><stop offset="0" stop-color="#595757"/><stop offset=".4" stop-color="#595757" stop-opacity="0"/></linearGradient><linearGradient id="u" gradientUnits="userSpaceOnUse" x1="32" x2="32" xlink:href="#t" y1="15.07991" y2="8.90722"/><linearGradient id="v" gradientUnits="userSpaceOnUse" x1="23.919701" x2="27.9599" xlink:href="#r" y1="18.576225" y2="18.576225"/><linearGradient id="w" gradientUnits="userSpaceOnUse" x1="25.9398" x2="25.9398" xlink:href="#t" y1="21.662571" y2="15.48988"/><linearGradient id="x" gradientUnits="userSpaceOnUse" x1="17.859501" x2="21.899639" xlink:href="#r" y1="18.576225" y2="18.576225"/><linearGradient id="y" gradientUnits="userSpaceOnUse" x1="19.87957" x2="19.87957" xlink:href="#t" y1="21.662571" y2="15.48988"/><linearGradient id="z" gradientUnits="userSpaceOnUse" x1="11.799283" x2="15.83943" xlink:href="#r" y1="18.576225" y2="18.576225"/><linearGradient id="A" gradientUnits="userSpaceOnUse" x1="13.819357" x2="13.819357" xlink:href="#t" y1="21.662571" y2="15.48988"/><linearGradient id="B" gradientUnits="userSpaceOnUse" x1="5.73907" x2="9.77921" xlink:href="#r" y1="18.576225" y2="18.576225"/><linearGradient id="C" gradientUnits="userSpaceOnUse" x1="7.75914" x2="7.75914" xlink:href="#t" y1="21.662571" y2="15.48988"/><linearGradient id="D" gradientUnits="userSpaceOnUse" x1="54.220799" x2="58.260899" xlink:href="#r" y1="18.576225" y2="18.576225"/><linearGradient id="E" gradientUnits="userSpaceOnUse" x1="56.240849" x2="56.240849" xlink:href="#t" y1="21.662571" y2="15.48988"/><linearGradient id="F" gradientUnits="userSpaceOnUse" x1="48.160599" x2="52.200699" xlink:href="#r" y1="18.576225" y2="18.576225"/><linearGradient id="G" gradientUnits="userSpaceOnUse" x1="50.180649" x2="50.180649" xlink:href="#t" y1="21.662571" y2="15.48988"/><linearGradient id="H" gradientUnits="userSpaceOnUse" x1="42.100399" x2="46.140499" xlink:href="#r" y1="18.576225" y2="18.576225"/><linearGradient id="I" gradientUnits="userSpaceOnUse" x1="44.120449" x2="44.120449" xlink:href="#t" y1="21.662571" y2="15.48988"/><linearGradient id="J" gradientUnits="userSpaceOnUse" x1="36.0401" x2="40.080299" xlink:href="#r" y1="18.576225" y2="18.576225"/><linearGradient id="K" gradientUnits="userSpaceOnUse" x1="38.0602" x2="38.0602" xlink:href="#t" y1="21.662571" y2="15.48988"/><linearGradient id="L" gradientUnits="userSpaceOnUse" x1="28.56192" x2="35.43808" xlink:href="#r" y1="19.107092" y2="19.107092"/><linearGradient id="M" gradientUnits="userSpaceOnUse" x1="32" x2="32" y1="23.134275" y2="15.079907"><stop offset="0" stop-color="#595757"/><stop offset=".4" stop-color="#595757" stop-opacity="0"/><stop offset=".6" stop-color="#595757" stop-opacity="0"/><stop offset="1" stop-color="#595757"/></linearGradient><linearGradient id="N" gradientTransform="matrix(.866 -.5 .5 .866 -5.6701 18.405199)" gradientUnits="userSpaceOnUse" x1="30.353739" x2="34.191738" y1="18.335884" y2="20.551752"><stop offset="0" stop-color="#717071"/><stop offset=".3" stop-color="#d9dada"/><stop offset=".5" stop-color="#f5f5f5"/><stop offset=".7" stop-color="#d9dada"/><stop offset="1" stop-color="#717071"/></linearGradient><linearGradient id="O" gradientTransform="matrix(1 0 0 2.4133301 0 -31.120529)" gradientUnits="userSpaceOnUse" x1="30.25" x2="33.75" xlink:href="#r" y1="28.361612" y2="28.361612"/><linearGradient id="P" gradientTransform="matrix(1 0 0 2.4133301 0 -31.120529)" gradientUnits="userSpaceOnUse" x1="32" x2="32" y1="34.347862" y2="22.375361"><stop offset="0" stop-color="#595757" stop-opacity=".7"/><stop offset=".0919643" stop-color="#595757" stop-opacity="0"/></linearGradient><linearGradient id="Q" gradientUnits="userSpaceOnUse" x1="27" x2="37" xlink:href="#r" y1="53.050652" y2="53.050652"/><linearGradient id="R" gradientUnits="userSpaceOnUse" x1="32" x2="32" xlink:href="#t" y1="54.329102" y2="51.772202"/><linearGradient id="S" gradientUnits="userSpaceOnUse" x1="22" x2="42" xlink:href="#r" y1="57.664551" y2="57.664551"/><linearGradient id="T" gradientUnits="userSpaceOnUse" x1="32" x2="32" y1="61" y2="54.329102"><stop offset="0" stop-color="#595757"/><stop offset=".15625" stop-color="#595757" stop-opacity="0"/><stop offset=".551786" stop-color="#595757" stop-opacity="0"/><stop offset="1" stop-color="#595757" stop-opacity=".8"/></linearGradient><linearGradient id="U" gradientUnits="userSpaceOnUse" x1="20.5625" x2="43.4375" xlink:href="#r" y1="60.666649" y2="60.666649"/><linearGradient id="V" gradientUnits="userSpaceOnUse" x1="32" x2="32" xlink:href="#t" y1="62" y2="59.333302"/><path d="m37.8312 22.328798h18.1014v1.5927h-18.1014z" fill="url(#b)"/><path d="m56.1826172 24.1713867h-18.6015625v-2.0927734h18.6015625zm-18.1015625-.5h17.6015625v-1.0927734h-17.6015625z" fill="#3e3a39"/><path d="m8.06744 22.328798h18.10136v1.5927h-18.10136z" fill="url(#c)"/><path d="m26.4189453 24.1713867h-18.6015625v-2.0927734h18.6015625zm-18.1015625-.5h17.6015625v-1.0927734h-17.6015625z" fill="#3e3a39"/><path d="m32 41.0330009c-13.9235001 0-25.2509003-8.7688026-25.2509003-19.5468616h2.0200801c.0000005 9.6440601 10.4211202 17.4892597 23.2308202 17.4892597 12.8092995 0 23.2308006-7.8451996 23.2308006-17.4892597h2.0200996c.0000001 10.778059-11.3274001 19.5468616-25.2509002 19.5468616z" fill="url(#e)"/><path d="m32 41.2832031c-14.0615234 0-25.5009766-8.8808594-25.5009766-19.796875v-.25h2.5200196v.25c0 9.5058594 10.309082 17.2392578 22.980957 17.2392578s22.9804688-7.7333984 22.9804688-17.2392578v-.25h2.5205078v.25c0 10.9160157-11.4394532 19.796875-25.5009766 19.796875zm-24.9990234-19.546875c.1748047 10.5253907 11.3217773 19.046875 24.9990234 19.046875 13.6767578 0 24.8242188-8.5214844 24.9990234-19.046875h-1.5205078c-.1787109 9.6665039-10.6416015 17.4892578-23.4785156 17.4892578s-23.3007812-7.8227539-23.4785156-17.4892578z" fill="#3e3a39"/><path d="m32 36.4034996c-10.5816994 0-19.1906815-6.6919003-19.1906815-14.9173603h2.020071c0 7.0909615 7.7027111 12.8597622 17.1706104 12.8597622 9.4682999 0 17.1706009-5.7688007 17.1706009-12.8597622h2.0200996c.0000001 8.22546-8.609001 14.9173603-19.1907004 14.9173603z" fill="url(#f)"/><path d="m32 36.6533203c-10.7197266 0-19.440918-6.8037109-19.440918-15.1669922v-.25h2.5205078v.25c0 6.9526367 7.590332 12.609375 16.9204102 12.609375s16.9208984-5.6567383 16.9208984-12.609375v-.25h2.5195313v.25c0 8.3632813-8.7207031 15.1669922-19.4404297 15.1669922zm-18.9379883-14.9169922c.1723633 7.9726563 8.6015625 14.4169922 18.9379883 14.4169922 10.3359375 0 18.7646484-6.4443359 18.9375-14.4169922h-1.5195313c-.1777343 7.1137696-7.9228515 12.859375-17.4179687 12.859375-9.4946289 0-17.2397461-5.7456055-17.4174805-12.859375z" fill="#3e3a39"/><path d="m32 31.7740002c-7.2402992 0-13.1304703-4.6151009-13.1304703-10.2878609h2.0200806c0 4.5382614 4.9842892 8.2302608 11.1103897 8.2302608 6.1264992 0 11.1104012-3.6919994 11.1104012-8.2302608h2.0200996c0 5.67276-5.8906021 10.2878609-13.1305008 10.2878609z" fill="url(#g)"/><path d="m32 32.0239258c-7.3779297 0-13.3803711-4.7270508-13.3803711-10.5375977v-.25h2.5200195v.25c0 4.4003906 4.8720703 7.9799805 10.8603516 7.9799805s10.8603516-3.5795898 10.8603516-7.9799805v-.25h2.5205078v.25c0 5.8105469-6.0029297 10.5375977-13.3808594 10.5375977zm-12.8764648-10.2875977c.1704101 5.4199219 5.8813476 9.7875977 12.8764648 9.7875977s12.7060547-4.3676758 12.8769531-9.7875977h-1.5214844c-.1777343 4.5605469-5.2031249 8.2299805-11.3554687 8.2299805-6.1518555 0-11.1777344-3.6694336-11.3554688-8.2299805z" fill="#3e3a39"/><path d="m32 27.1443996c-3.8985004 0-7.0702991-2.5382004-7.0702991-5.6582603h2.0200996c0 1.9518604 2.3127995 3.6007614 5.0501995 3.6007614s5.0502014-1.648901 5.0502014-3.6007614h2.0200996c.0000001 3.12006-3.1714019 5.6582603-7.070301 5.6582603z" fill="url(#h)"/><path d="m32 27.3945313c-4.0366211 0-7.3203125-2.6503906-7.3203125-5.9082031v-.25h2.5200195v.25c0 1.8164063 2.1982422 3.3505859 4.800293 3.3505859 2.6015625 0 4.7998047-1.5341797 4.7998047-3.3505859v-.25h2.5205078v.25c0 3.2578124-3.2841797 5.9082031-7.3203125 5.9082031zm-6.8129883-5.6582032c.1650391 2.8666992 3.1577149 5.1582032 6.8129883 5.1582032s6.6474609-2.2915039 6.8134766-5.1582031h-1.5253906c-.1835938 1.9760741-2.5302735 3.6005859-5.288086 3.6005859s-5.1044922-1.6245117-5.2885742-3.6005859h-1.5244141z" fill="#3e3a39"/><path d="m34.0200996 7.09657c0 2.2727203-.9043999 2.6336803-2.0200996 2.6336803s-2.0200996-.36096-2.0200996-2.6336803.9043998-5.59657 2.0200996-5.59657 2.0200996 3.3238502 2.0200996 5.59657z" fill="url(#j)"/><path d="m40.0802994 13.7342796c0 2.2727203-.9043999 2.6336803-2.0200996 2.6336803-1.1156006 0-2.0200996-.36096-2.0200996-2.6336803s.9044991-5.59657 2.0200996-5.59657c1.1156997 0 2.0200996 3.3238516 2.0200996 5.59657z" fill="url(#k)"/><path d="m46.1404991 13.7342796c0 2.2727203-.9043999 2.6336803-2.0200996 2.6336803-1.1156006 0-2.0200005-.36096-2.0200005-2.6336803s.9043999-5.59657 2.0200005-5.59657c1.1156997 0 2.0200996 3.3238516 2.0200996 5.59657z" fill="url(#l)"/><path d="m52.2006989 13.7342796c0 2.2727203-.9043999 2.6336803-2.0200996 2.6336803-1.1156006 0-2.0200005-.36096-2.0200005-2.6336803s.9043999-5.59657 2.0200005-5.59657c1.1156997 0 2.0200996 3.3238516 2.0200996 5.59657z" fill="url(#m)"/><path d="m58.2608986 13.7342796c0 2.2727203-.9043999 2.6336803-2.0200005 2.6336803-1.1156998 0-2.0200996-.36096-2.0200996-2.6336803s.9043999-5.59657 2.0200996-5.59657c1.1156006 0 2.0200005 3.3238516 2.0200005 5.59657z" fill="url(#n)"/><path d="m15.8394299 13.7342796c0 2.2727203-.9044199 2.6336803-2.0200796 2.6336803-1.1156502 0-2.0200672-.36096-2.0200672-2.6336803s.904417-5.59657 2.0200672-5.59657c1.1156597 0 2.0200796 3.3238516 2.0200796 5.59657z" fill="url(#o)"/><path d="m21.8996391 13.7342796c0 2.2727203-.9044189 2.6336803-2.0200691 2.6336803-1.1156597 0-2.0200691-.36096-2.0200691-2.6336803s.9044094-5.59657 2.0200691-5.59657c1.1156502 0 2.0200691 3.3238516 2.0200691 5.59657z" fill="url(#p)"/><path d="m27.9598999 13.7342796c0 2.2727203-.9044991 2.6336803-2.0200996 2.6336803-1.1156998 0-2.0200996-.36096-2.0200996-2.6336803s.9043999-5.59657 2.0200996-5.59657c1.1156005 0 2.0200996 3.3238516 2.0200996 5.59657z" fill="url(#q)"/><path d="m32.0992012 15.0799103h-.1984005c-1.0609016 0-1.9209003-.8600006-1.9209003-1.9208698v-3.7716008c0-.2652197.2150002-.4802198.4801998-.4802198h3.0798016c.2651978 0 .4801979.2150002.4801979.4802198v3.7716007c-.0000001 1.0608693-.8600007 1.9208699-1.9208985 1.9208699z" fill="url(#s)"/><path d="m32.0992012 15.0799103h-.1984005c-1.0609016 0-1.9209003-.8600006-1.9209003-1.9208698v-3.7716008c0-.2652197.2150002-.4802198.4801998-.4802198h3.0798016c.2651978 0 .4801979.2150002.4801979.4802198v3.7716007c-.0000001 1.0608693-.8600007 1.9208699-1.9208985 1.9208699z" fill="url(#u)"/><path d="m32.0991211 15.3300781h-.1982422c-1.1972656 0-2.1708984-.9736328-2.1708984-2.1708984v-3.7719727c0-.4023438.3276367-.7299805.7299805-.7299805h3.0800781c.4023438 0 .7304688.3276367.7304688.7299805v3.7719727c-.0000001 1.1972656-.9736329 2.1708984-2.1713868 2.1708984zm-1.6391602-6.1728515c-.1269531 0-.2299805.1030273-.2299805.2299805v3.7719727c0 .9213867.7495117 1.6708984 1.6708984 1.6708984h.1982422c.9213867 0 1.6713867-.7495117 1.6713867-1.6708984v-3.7719728c0-.1269531-.1035156-.2299805-.2304688-.2299805h-3.080078z" fill="#3e3a39"/><path d="m26.0389996 21.662571h-.1984005c-1.0608997 0-1.9208984-.8600006-1.9208984-1.9208717v-3.7715988c0-.2652206.2150002-.4802208.4801998-.4802208h3.0797005c.2652988 0 .480299.2150002.480299.4802208v3.7715988c-.0000001 1.060871-.8600007 1.9208717-1.9209004 1.9208717z" fill="url(#v)"/><path d="m26.0389996 21.662571h-.1984005c-1.0608997 0-1.9208984-.8600006-1.9208984-1.9208717v-3.7715988c0-.2652206.2150002-.4802208.4801998-.4802208h3.0797005c.2652988 0 .480299.2150002.480299.4802208v3.7715988c-.0000001 1.060871-.8600007 1.9208717-1.9209004 1.9208717z" fill="url(#w)"/><path d="m26.0390625 21.9125977h-.1982422c-1.1972656 0-2.1708984-.9736328-2.1708984-2.1708984v-3.7714844c0-.402832.3276367-.7304688.7299805-.7304688h3.0795898c.402832 0 .7304688.3276367.7304688.7304688v3.7714844c-.0000001 1.1972655-.9736329 2.1708984-2.1708985 2.1708984zm-1.6391602-6.1728516c-.1269531 0-.2299805.1035156-.2299805.2304688v3.7714844c0 .9213867.7495117 1.6708984 1.6708984 1.6708984h.1982422c.9213867 0 1.6708984-.7495117 1.6708984-1.6708984v-3.7714844c0-.1269531-.1035156-.2304688-.2304688-.2304688z" fill="#3e3a39"/><path d="m19.9787807 21.662571h-.1984215c-1.0608597 0-1.9208584-.8600006-1.9208584-1.9208717v-3.7715988c0-.2652206.2149982-.4802208.4802094-.4802208h3.0797195c.2652111 0 .4802094.2150002.4802094.4802208v3.7715988c0 1.060871-.8599987 1.9208717-1.9208584 1.9208717z" fill="url(#x)"/><path d="m19.9787807 21.662571h-.1984215c-1.0608597 0-1.9208584-.8600006-1.9208584-1.9208717v-3.7715988c0-.2652206.2149982-.4802208.4802094-.4802208h3.0797195c.2652111 0 .4802094.2150002.4802094.4802208v3.7715988c0 1.060871-.8599987 1.9208717-1.9208584 1.9208717z" fill="url(#y)"/><path d="m19.9790039 21.9125977h-.1987305c-1.1972656 0-2.1708984-.9736328-2.1708984-2.1708984v-3.7714844c0-.402832.3276367-.7304688.7304688-.7304688h3.0795898c.4023438 0 .7299805.3276367.7299805.7304688v3.7714844c0 1.1972655-.9736328 2.1708984-2.1704102 2.1708984zm-1.6391601-6.1728516c-.1269531 0-.2304688.1035156-.2304688.2304688v3.7714844c0 .9213867.7495117 1.6708984 1.6708984 1.6708984h.1987305c.9208984 0 1.6704102-.7495117 1.6704102-1.6708984v-3.7714844c0-.1269531-.1030273-.2304688-.2299805-.2304688z" fill="#3e3a39"/><path d="m13.91856 21.662571h-.19841c-1.0608673 0-1.920867-.8600006-1.920867-1.9208717v-3.7715988c0-.2652206.2150002-.4802208.480216-.4802208h3.079711c.2652197 0 .4802198.2150002.4802198.4802208v3.7715988c.0000001 1.060871-.8599996 1.9208717-1.9208698 1.9208717z" fill="url(#z)"/><path d="m13.91856 21.662571h-.19841c-1.0608673 0-1.920867-.8600006-1.920867-1.9208717v-3.7715988c0-.2652206.2150002-.4802208.480216-.4802208h3.079711c.2652197 0 .4802198.2150002.4802198.4802208v3.7715988c.0000001 1.060871-.8599996 1.9208717-1.9208698 1.9208717z" fill="url(#A)"/><path d="m13.918457 21.9125977h-.1982422c-1.1972656 0-2.1708984-.9736328-2.1708984-2.1708984v-3.7714844c0-.402832.3276367-.7304688.7299805-.7304688h3.0800781c.4023438 0 .7299805.3276367.7299805.7304688v3.7714844c0 1.1972655-.9736328 2.1708984-2.1708985 2.1708984zm-1.6391601-6.1728516c-.1269531 0-.2299805.1035156-.2299805.2304688v3.7714844c0 .9213867.7495117 1.6708984 1.6708984 1.6708984h.1982422c.9213867 0 1.6708984-.7495117 1.6708984-1.6708984v-3.7714844c0-.1269531-.1030273-.2304688-.2299805-.2304688z" fill="#3e3a39"/><path d="m7.8583498 21.662571h-.1984196c-1.0608602 0-1.9208603-.8600006-1.9208603-1.9208717v-3.7715988c0-.2652206.2150002-.4802208.4802098-.4802208h3.07972c.2652102 0 .4802103.2150002.4802103.4802208v3.7715988c.0000001 1.060871-.8599996 1.9208717-1.9208602 1.9208717z" fill="url(#B)"/><path d="m7.8583498 21.662571h-.1984196c-1.0608602 0-1.9208603-.8600006-1.9208603-1.9208717v-3.7715988c0-.2652206.2150002-.4802208.4802098-.4802208h3.07972c.2652102 0 .4802103.2150002.4802103.4802208v3.7715988c.0000001 1.060871-.8599996 1.9208717-1.9208602 1.9208717z" fill="url(#C)"/><path d="m7.8583984 21.9125977h-.1982421c-1.1972656 0-2.1708984-.9736328-2.1708984-2.1708984v-3.7714844c0-.402832.3276367-.7304688.7299805-.7304688h3.0795898c.402832 0 .7304688.3276367.7304688.7304688v3.7714844c-.0000001 1.1972655-.9736329 2.1708984-2.1708986 2.1708984zm-1.6391601-6.1728516c-.1269531 0-.2299805.1035156-.2299805.2304688v3.7714844c0 .9213867.7495117 1.6708984 1.6708984 1.6708984h.1982422c.9213867 0 1.6708984-.7495117 1.6708984-1.6708984v-3.7714844c0-.1269531-.1035156-.2304688-.2304688-.2304688z" fill="#3e3a39"/><path d="m56.3400993 21.662571h-.1983986c-1.0609016 0-1.9209023-.8600006-1.9209023-1.9208717v-3.7715988c0-.2652206.2150002-.4802208.4802017-.4802208h3.0797005c.2651978 0 .4801979.2150002.4801979.4802208v3.7715988c.0000001 1.060871-.8599967 1.9208717-1.9207992 1.9208717z" fill="url(#D)"/><path d="m56.3400993 21.662571h-.1983986c-1.0609016 0-1.9209023-.8600006-1.9209023-1.9208717v-3.7715988c0-.2652206.2150002-.4802208.4802017-.4802208h3.0797005c.2651978 0 .4801979.2150002.4801979.4802208v3.7715988c.0000001 1.060871-.8599967 1.9208717-1.9207992 1.9208717z" fill="url(#E)"/><path d="m56.3398438 21.9125977h-.1982422c-1.1972656 0-2.1708984-.9736328-2.1708984-2.1708984v-3.7714844c0-.402832.328125-.7304688.7304688-.7304688h3.0791016c.4023438 0 .7304688.3276367.7304688.7304688v3.7714844c-.0000002 1.1972655-.973633 2.1708984-2.1708986 2.1708984zm-1.6386719-6.1728516c-.1269531 0-.2304688.1035156-.2304688.2304688v3.7714844c0 .9213867.75 1.6708984 1.6708984 1.6708984h.1982422c.9208984 0 1.6708984-.7495117 1.6708984-1.6708984v-3.7714844c0-.1269531-.1035156-.2304688-.2304688-.2304688z" fill="#3e3a39"/><path d="m50.2798996 21.662571h-.1984978c-1.0608025 0-1.9208031-.8600006-1.9208031-1.9208717v-3.7715988c0-.2652206.2150002-.4802208.4802017-.4802208h3.0797005c.2651978 0 .4801979.2150002.4801979.4802208v3.7715988c.0000001 1.060871-.8600006 1.9208717-1.9207992 1.9208717z" fill="url(#F)"/><path d="m50.2798996 21.662571h-.1984978c-1.0608025 0-1.9208031-.8600006-1.9208031-1.9208717v-3.7715988c0-.2652206.2150002-.4802208.4802017-.4802208h3.0797005c.2651978 0 .4801979.2150002.4801979.4802208v3.7715988c.0000001 1.060871-.8600006 1.9208717-1.9207992 1.9208717z" fill="url(#G)"/><path d="m50.2802734 21.9125977h-.1992188c-1.1972656 0-2.1708984-.9736328-2.1708984-2.1708984v-3.7714844c0-.402832.328125-.7304688.7304688-.7304688h3.0800781c.4023438 0 .7304688.3276367.7304688.7304688v3.7714844c0 1.1972655-.9736328 2.1708984-2.1708985 2.1708984zm-1.6396484-6.1728516c-.1269531 0-.2304688.1035156-.2304688.2304688v3.7714844c0 .9213867.75 1.6708984 1.6708984 1.6708984h.1992188c.9208984 0 1.6708984-.7495117 1.6708984-1.6708984v-3.7714844c0-.1269531-.1035156-.2304688-.2304688-.2304688z" fill="#3e3a39"/><path d="m44.2196007 21.662571h-.1984024c-1.0607986 0-1.9207993-.8600006-1.9207993-1.9208717v-3.7715988c0-.2652206.2150002-.4802208.4802017-.4802208h3.0797005c.2651978 0 .4801979.2150002.4801979.4802208v3.7715988c0 1.060871-.8600006 1.9208717-1.9208984 1.9208717z" fill="url(#H)"/><path d="m44.2196007 21.662571h-.1984024c-1.0607986 0-1.9207993-.8600006-1.9207993-1.9208717v-3.7715988c0-.2652206.2150002-.4802208.4802017-.4802208h3.0797005c.2651978 0 .4801979.2150002.4801979.4802208v3.7715988c0 1.060871-.8600006 1.9208717-1.9208984 1.9208717z" fill="url(#I)"/><path d="m44.2197266 21.9125977h-.1982422c-1.1972656 0-2.1708984-.9736328-2.1708984-2.1708984v-3.7714844c0-.402832.328125-.7304688.7304688-.7304688h3.0791016c.4023438 0 .7304688.3276367.7304688.7304688v3.7714844c-.0000002 1.1972655-.973633 2.1708984-2.1708986 2.1708984zm-1.6386719-6.1728516c-.1269531 0-.2304688.1035156-.2304688.2304688v3.7714844c0 .9213867.75 1.6708984 1.6708984 1.6708984h.1982422c.9208984 0 1.6708984-.7495117 1.6708984-1.6708984v-3.7714844c0-.1269531-.1035156-.2304688-.2304688-.2304688z" fill="#3e3a39"/><path d="m38.1594009 21.662571h-.1984024c-1.0608978 0-1.9208984-.8600006-1.9208984-1.9208717v-3.7715988c0-.2652206.2150002-.4802208.4803009-.4802208h3.0797005c.2651978 0 .4801979.2150002.4801979.4802208v3.7715988c0 1.060871-.8600006 1.9208717-1.9208985 1.9208717z" fill="url(#J)"/><path d="m38.1594009 21.662571h-.1984024c-1.0608978 0-1.9208984-.8600006-1.9208984-1.9208717v-3.7715988c0-.2652206.2150002-.4802208.4803009-.4802208h3.0797005c.2651978 0 .4801979.2150002.4801979.4802208v3.7715988c0 1.060871-.8600006 1.9208717-1.9208985 1.9208717z" fill="url(#K)"/><path d="m38.1591797 21.9125977h-.1982422c-1.1972656 0-2.1708984-.9736328-2.1708984-2.1708984v-3.7714844c0-.402832.328125-.7304688.7304688-.7304688h3.0800781c.4023438 0 .7294922.3276367.7294922.7304688v3.7714844c-.0000001 1.1972655-.9736329 2.1708984-2.1708985 2.1708984zm-1.6386719-6.1728516c-.1269531 0-.2304688.1035156-.2304688.2304688v3.7714844c0 .9213867.75 1.6708984 1.6708984 1.6708984h.1982422c.9208984 0 1.6708984-.7495117 1.6708984-1.6708984v-3.7714844c0-.1269531-.1025391-.2304688-.2294922-.2304688z" fill="#3e3a39"/><path d="m34.3930016 19.1070995 1.0169983-1.8016396c.0797997-.1413002-.0200005-.3179398-.1795006-.3179398h-2.0340004l-1.0169983-1.80163c-.0797997-.1413097-.2792015-.1413097-.3590012 0l-1.0170002 1.80163h-2.0339985c-.1595001 0-.2593002.1766396-.1795006.3179398l1.0170002 1.8016396-1.0170002 1.801651c-.0797997.1413002.0200005.3179302.1795006.3179302h2.0339985l1.0170002 1.8016186c.0797997.1413002.2792015.1413002.3590012 0l1.0169983-1.8016186h2.0340004c.1595001 0 .2593002-.17663.1795006-.3179302z" fill="url(#L)"/><path d="m34.3930016 19.1070995 1.0169983-1.8016396c.0797997-.1413002-.0200005-.3179398-.1795006-.3179398h-2.0340004l-1.0169983-1.80163c-.0797997-.1413097-.2792015-.1413097-.3590012 0l-1.0170002 1.80163h-2.0339985c-.1595001 0-.2593002.1766396-.1795006.3179398l1.0170002 1.8016396-1.0170002 1.801651c-.0797997.1413002.0200005.3179302.1795006.3179302h2.0339985l1.0170002 1.8016186c.0797997.1413002.2792015.1413002.3590012 0l1.0169983-1.8016186h2.0340004c.1595001 0 .2593002-.17663.1795006-.3179302z" fill="url(#M)"/><path d="m32 23.3842773c-.1660156 0-.3144531-.0869141-.3969727-.2324219l-.9453125-1.675293h-1.8881836c-.1635742 0-.3105469-.0849609-.3935547-.2265625-.0844727-.1445313-.0859375-.3178711-.0039063-.4638672l.9477539-1.6791992-.9477539-1.6782227c-.0820313-.1464844-.0805664-.3198242.0039063-.4643555.0830078-.1420898.2299805-.2270508.3935547-.2270508h1.8881836l.9448242-1.6743164c.1650391-.2919922.6298828-.2919922.7949219 0l.9443359 1.6743164h1.8886719c.1640625 0 .3105469.0849609.3945313.2275391.0839844.1450195.0849609.3183594.0029297.4638672l-.9482422 1.6782227.9482422 1.6787109c.0820313.1455078.0810547.3188477-.0029297.4633789-.0830078.1425781-.2304688.2275391-.3945313.2275391h-1.8886719l-.9443359 1.6748047c-.0830078.1459962-.2314453.2329102-.3974609.2329102zm-3.1616211-2.4077148h2.1113281l1.050293 1.8613281 1.0507813-1.8613281h2.1103516l-1.0556641-1.8696289 1.0566406-1.8696289h-2.1113281l-1.0507813-1.8608399-1.050293 1.8608398h-2.1113281l1.0556641 1.8696289z" fill="#3e3a39"/><path d="m30.8911133 21.0678711-1.1069336-1.9609375 1.1069336-1.9604492h2.2182617l1.1064453 1.9604492-1.1064453 1.9609375z" fill="url(#N)"/><path d="m33.0362015 17.271492 1.0361977 1.8356094-1.0361977 1.8356094h-2.072401l-1.0361996-1.8356094 1.0361996-1.8356094zm.1459579-.25h-.1459579-2.072401-.1459599l-.0717506.1270981-1.0361996 1.8356133-.0693703.1228981.0693703.1228981 1.0361996 1.8356133.0717506.1270981h.1459599 2.072401.1459579l.0717506-.1270981 1.0362015-1.8356133.0693703-.1228981-.0693703-.1228981-1.0362015-1.8356133z" fill="#3e3a39"/><path d="m33.75 51.7722015h-3.5v-27.8936023c0-.5522995.4477005-1 1-1h1.5c.5522995 0 1 .4477005 1 1z" fill="url(#O)"/><path d="m33.75 51.7722015h-3.5v-27.8936023c0-.5522995.4477005-1 1-1h1.5c.5522995 0 1 .4477005 1 1z" fill="url(#P)"/><path d="m34 52.0224609h-4v-28.1440429c0-.6894531.5605469-1.25 1.25-1.25h1.5c.6894531 0 1.25.5605469 1.25 1.25zm-3.5-.5h3v-27.6440429c0-.4135742-.3369141-.75-.75-.75h-1.5c-.4135742 0-.75.3364258-.75.75z" fill="#3e3a39"/><path d="m35.75 54.3291016h-7.5c-.6903992 0-1.25-.5596008-1.25-1.25v-.0569c0-.690403.5596008-1.25 1.25-1.25h7.5c.6903992 0 1.25.559597 1.25 1.25v.0569c0 .6903991-.5596008 1.25-1.25 1.25z" fill="url(#Q)"/><path d="m35.75 54.3291016h-7.5c-.6903992 0-1.25-.5596008-1.25-1.25v-.0569c0-.690403.5596008-1.25 1.25-1.25h7.5c.6903992 0 1.25.559597 1.25 1.25v.0569c0 .6903991-.5596008 1.25-1.25 1.25z" fill="url(#R)"/><path d="m35.75 54.5791016h-7.5c-.8271484 0-1.5-.6728516-1.5-1.5 0-.8837891.6728516-1.5566406 1.5-1.5566406h7.5c.8271484 0 1.5.6728516 1.5 1.5 0 .883789-.6728516 1.5566406-1.5 1.5566406zm-7.5-2.5566407c-.5512695 0-1 .4482422-1 1 0 .6083984.4487305 1.0566406 1 1.0566406h7.5c.5517578 0 1-.4482422 1-1 0-.6083984-.4482422-1.0566406-1-1.0566406z" fill="#3e3a39"/><path d="m28.6667004 54.3291016c0 2.824398-2.9848003 5.1138992-6.6667004 5.1138992v1.5569992h20v-1.5569992c-3.6819 0-6.6666985-2.2895012-6.6666985-5.1138992z" fill="url(#S)"/><path d="m28.6667004 54.3291016c0 2.824398-2.9848003 5.1138992-6.6667004 5.1138992v1.5569992h20v-1.5569992c-3.6819 0-6.6666985-2.2895012-6.6666985-5.1138992z" fill="url(#T)"/><path d="m42.25 61.25h-20.5v-2.0566406h.25c3.5380859 0 6.4165039-2.1816406 6.4165039-4.8642578v-.25h7.1665039v.25c0 2.6826172 2.8789063 4.8642578 6.4169922 4.8642578h.25zm-20-.5h19.5v-1.0605469c-3.5917969-.0986328-6.4941406-2.3320313-6.6591797-5.1103516h-6.1816406c-.1650391 2.7783203-3.0678711 5.0107422-6.6591797 5.1103516z" fill="#3e3a39"/><path d="m42.1875 62h-20.375c-.6903591 0-1.25-.5596008-1.25-1.25v-.1666985c0-.6903.5596409-1.25 1.25-1.25h20.375c.6903992 0 1.25.5597 1.25 1.25v.1666985c0 .6903992-.5596008 1.25-1.25 1.25z" fill="url(#U)"/><path d="m42.1875 62h-20.375c-.6903591 0-1.25-.5596008-1.25-1.25v-.1666985c0-.6903.5596409-1.25 1.25-1.25h20.375c.6903992 0 1.25.5597 1.25 1.25v.1666985c0 .6903992-.5596008 1.25-1.25 1.25z" fill="url(#V)"/><path d="m42.1875 62.25h-20.375c-.8271484 0-1.5-.6728516-1.5-1.5v-.1669922c0-.8271484.6728516-1.5 1.5-1.5h20.375c.8271484 0 1.5.6728516 1.5 1.5v.1669922c0 .8271484-.6728516 1.5-1.5 1.5zm-20.375-2.6669922c-.5512695 0-1 .4482422-1 1v.1669922c0 .5517578.4487305 1 1 1h20.375c.5517578 0 1-.4482422 1-1v-.1669922c0-.5517578-.4482422-1-1-1z" fill="#3e3a39"/></svg>